<?xml version="1.0" standalone="no"?>
<!DOCTYPE svg PUBLIC "-//W3C//DTD SVG 20010904//EN"
 "http://www.w3.org/TR/2001/REC-SVG-20010904/DTD/svg10.dtd">
<svg version="1.0" xmlns="http://www.w3.org/2000/svg"
 width="800.000000pt" height="500.000000pt" viewBox="0 0 800.000000 500.000000"
 preserveAspectRatio="xMidYMid meet">
<metadata>
Created by potrace 1.16, written by Peter Selinger 2001-2019
</metadata>
<g transform="translate(0.000000,500.000000) scale(0.133333,-0.083333)"
fill="gray" stroke="none">
<path d="M18 5993 c12 -2 22 -9 22 -14 0 -5 1147 -9 2975 -9 l2975 0 0 -2980
0 -2980 -2975 -3 -2975 -2 2977 0 2978 0 3 2998 2 2997 -3002 -1 c-1652 -1
-2993 -4 -2980 -6z"/>
<path d="M45 3550 c0 -1323 1 -1864 2 -1202 2 661 2 1743 0 2405 -1 661 -2
120 -2 -1203z"/>
<path d="M4770 5940 c-652 -3 -1011 -6 -798 -8 l387 -2 -24 -26 c-14 -15 -25
-35 -25 -44 0 -33 -35 -60 -81 -62 -144 -6 399 -14 938 -14 l633 1 1 -715 c1
-606 11 -1200 17 -1037 1 32 6 47 16 47 8 0 12 -8 9 -22 -6 -39 10 -52 53 -41
l39 9 5 89 c3 50 7 -103 10 -340 3 -247 6 125 8 873 1 716 1 1301 0 1300 -2
-2 -536 -5 -1188 -8z"/>
<path d="M3252 5685 c-44 -19 -67 -73 -52 -120 23 -69 109 -88 161 -36 76 77
-9 200 -109 156z"/>
<path d="M3824 5690 c-34 -13 -64 -59 -64 -97 0 -50 45 -93 98 -93 103 0 138
126 50 180 -36 22 -51 23 -84 10z"/>
<path d="M926 5664 c-39 -40 -37 -103 5 -138 43 -36 91 -35 130 3 21 22 29 39
29 66 0 83 -105 127 -164 69z m94 0 c0 -10 6 -14 14 -11 18 7 34 -12 42 -49 4
-21 0 -37 -16 -57 -26 -33 -37 -34 -43 -4 l-4 22 -8 -22 c-8 -25 -43 -31 -63
-11 -8 8 -7 20 3 46 8 19 15 47 15 62 0 33 7 40 37 40 14 0 23 -6 23 -16z"/>
<path d="M1499 5661 c-21 -22 -29 -39 -29 -66 0 -51 44 -95 95 -95 51 0 95 44
95 95 0 51 -44 95 -95 95 -27 0 -44 -8 -66 -29z"/>
<path d="M2093 5672 c-28 -22 -45 -66 -37 -98 8 -31 59 -74 89 -74 40 0 73 21
90 57 20 41 14 75 -20 109 -29 29 -89 32 -122 6z"/>
<path d="M2645 5666 c-34 -34 -40 -68 -20 -109 17 -36 50 -57 91 -57 85 0 124
117 57 170 -37 29 -97 27 -128 -4z"/>
<path d="M4391 5664 c-65 -54 -22 -164 64 -164 27 0 44 8 66 29 21 22 29 39
29 66 0 27 -8 44 -29 66 -39 38 -87 39 -130 3z"/>
<path d="M4984 5678 c-55 -26 -62 -108 -14 -150 37 -34 77 -36 114 -7 38 30
49 64 36 105 -19 55 -81 79 -136 52z"/>
<path d="M5545 5666 c-35 -35 -42 -72 -20 -112 47 -87 175 -56 175 43 0 78
-101 123 -155 69z m91 -1 c4 -8 10 -12 16 -9 15 9 37 -28 38 -61 0 -60 -59
-106 -61 -47 l-1 27 -10 -27 c-10 -30 -34 -36 -61 -15 -16 11 -16 14 3 52 11
21 20 52 20 67 0 23 4 28 25 28 14 0 28 -7 31 -15z"/>
<path d="M344 5646 c-46 -46 -46 -86 0 -132 24 -24 43 -34 65 -34 43 0 90 45
98 92 5 33 2 41 -30 73 -47 47 -86 48 -133 1z m114 -36 c29 0 32 -3 32 -30 0
-16 -4 -30 -10 -30 -5 0 -10 -7 -10 -15 0 -36 -87 -48 -120 -15 -26 26 -25 40
3 40 17 0 19 2 7 9 -8 6 -18 7 -22 5 -15 -9 -8 39 8 57 15 17 17 17 47 -2 18
-10 47 -19 65 -19z"/>
<path d="M581 5087 c-3 -300 11 -1430 17 -1337 3 42 6 48 48 73 25 15 49 27
54 27 10 0 17 22 23 75 2 17 5 -701 6 -1595 l1 -1624 -66 -67 -65 -66 128 -6
c154 -8 683 -7 1028 3 138 3 236 7 218 8 -32 2 -32 3 -35 60 l-3 57 -50 6
c-27 3 723 7 1668 7 l1717 2 2 508 c2 279 1 964 -1 1522 -3 873 7 2043 17
1913 3 -35 7 -43 23 -43 10 0 19 -4 19 -10 0 -5 9 -10 20 -10 11 0 20 7 20 15
0 8 7 15 15 15 9 0 15 -9 15 -24 0 -14 4 -28 10 -31 7 -4 10 137 10 417 l0
423 -78 -78 -77 -77 -1105 1 c-936 2 -1803 10 -1652 17 l42 2 0 61 c0 57 1 60
23 57 19 -3 23 -10 28 -63 l6 -60 1 62 2 62 48 4 c26 2 -430 4 -1013 5 l-1060
2 -4 -313z m4649 -2107 l0 -2230 -2235 0 -2235 0 0 2230 0 2230 2235 0 2235 0
0 -2230z"/>
<path d="M338 5031 c-28 -25 -33 -36 -32 -72 1 -35 8 -48 33 -71 35 -31 68
-35 111 -13 59 31 69 107 21 156 -40 40 -89 40 -133 0z m62 -26 c14 -8 40 -14
58 -15 28 0 32 -3 32 -25 0 -17 -7 -29 -22 -35 -13 -5 -17 -9 -9 -9 11 -1 10
-6 -4 -21 -22 -25 -81 -27 -107 -3 -25 22 -23 43 5 44 22 0 21 0 -3 10 -32 13
-32 12 -21 43 12 29 33 33 71 11z"/>
<path d="M5568 5045 c-84 -47 -53 -175 43 -175 49 0 88 33 95 81 12 70 -76
129 -138 94z m102 -55 c25 0 30 -4 30 -25 0 -13 -8 -29 -17 -34 -10 -6 -14
-11 -9 -11 5 0 1 -9 -9 -20 -22 -25 -81 -27 -107 -3 -25 22 -23 43 5 44 20 1
19 2 -5 11 -32 11 -35 24 -13 55 15 21 15 21 54 2 22 -10 54 -19 71 -19z"/>
<path d="M229 4690 c-8 -511 -10 -3976 -3 -4077 4 -56 10 -89 15 -81 5 7 9 9
9 3 0 -5 14 -26 30 -45 16 -19 30 -39 30 -43 0 -5 5 -5 11 -1 8 5 8 1 0 -14
-20 -38 -13 -72 24 -109 30 -30 40 -35 74 -31 22 2 37 0 35 -4 -3 -4 4 -18 16
-30 19 -21 20 -23 3 -30 -10 -3 837 -6 1882 -6 1045 1 1859 4 1810 7 l-90 6
-45 49 c-25 26 -48 53 -52 60 -5 7 -12 4 -22 -9 -8 -11 -13 -22 -11 -26 2 -3
-2 -6 -10 -6 -10 0 -9 7 6 25 14 19 19 38 17 78 -1 29 -5 49 -8 44 -3 -5 -13
-1 -22 9 -9 11 -15 21 -13 23 2 1 -15 4 -37 6 -26 2 -53 -4 -77 -18 -32 -18
-34 -18 -14 -1 12 10 19 22 15 25 -3 4 1 4 10 1 11 -4 18 0 22 13 5 14 15 20
34 19 15 -1 52 1 82 3 30 3 -719 7 -1665 10 l-1720 5 -5 2080 c-3 1144 -7
2024 -9 1955 -2 -83 -6 -113 -10 -90 -10 48 -15 57 -88 138 -24 25 -43 50 -43
55 0 5 -6 14 -12 21 -7 8 -24 28 -38 45 -14 17 -45 52 -69 77 -40 41 -45 53
-51 108 -4 37 -9 -59 -11 -244z m211 -4229 c0 -5 9 -11 20 -14 40 -10 47 -79
12 -119 -20 -23 -27 -23 -40 5 l-11 22 0 -22 c-1 -17 -7 -23 -25 -23 -13 0
-29 7 -37 16 -10 13 -10 20 4 44 9 15 17 44 17 64 0 33 2 36 30 36 17 0 30 -4
30 -9z m580 -7 c0 -10 6 -14 15 -10 18 6 45 -30 45 -60 0 -23 -35 -74 -51 -74
-5 0 -9 12 -10 28 l-1 27 -11 -27 c-12 -31 -46 -38 -66 -14 -10 11 -9 21 3 45
9 16 16 46 16 66 0 32 2 35 30 35 21 0 30 -5 30 -16z"/>
<path d="M5573 4476 c-38 -17 -53 -43 -53 -91 0 -93 133 -127 175 -44 22 42
18 75 -12 108 -34 37 -68 45 -110 27z"/>
<path d="M5563 3888 c-12 -6 -29 -26 -38 -45 -28 -58 9 -127 70 -133 42 -4 57
1 86 29 79 79 -15 199 -118 149z"/>
<path d="M5545 3316 c-53 -53 -37 -134 31 -162 42 -17 69 -11 107 24 37 35 37
88 1 131 -22 26 -33 31 -70 31 -34 0 -51 -6 -69 -24z"/>
<path d="M5550 2733 c-42 -38 -48 -79 -18 -122 57 -85 178 -51 178 49 0 88
-95 131 -160 73z"/>
<path d="M5546 2164 c-39 -40 -37 -103 5 -138 43 -36 91 -35 130 3 21 22 29
39 29 66 0 83 -105 127 -164 69z"/>
<path d="M5568 1584 c-34 -18 -48 -43 -48 -84 0 -44 16 -69 53 -85 43 -18 82
-9 112 27 42 49 28 115 -30 143 -40 18 -52 18 -87 -1z"/>
<path d="M5549 991 c-42 -42 -41 -99 2 -135 43 -37 91 -35 131 4 27 28 30 36
25 73 -11 84 -99 116 -158 58z"/>
<path d="M42 485 l-2 -450 1232 5 c868 3 1106 6 803 10 -236 3 -425 6 -420 8
12 3 45 59 45 76 0 24 37 46 81 48 130 6 -396 15 -946 16 -419 1 -631 5 -633
12 -2 6 -8 8 -12 5 -5 -3 -39 -3 -74 1 l-66 7 -3 356 -2 356 -3 -450z"/>
<path d="M4404 471 c-59 -36 -65 -112 -12 -156 42 -35 91 -34 129 4 49 49 35
128 -28 160 -31 16 -53 14 -89 -8z"/>
<path d="M4982 470 c-61 -38 -66 -108 -10 -155 43 -36 82 -33 125 10 31 31 35
40 30 72 -12 74 -85 111 -145 73z"/>
<path d="M5574 480 c-30 -12 -64 -58 -64 -87 0 -38 26 -79 59 -93 64 -26 131
19 131 87 0 47 -16 72 -55 89 -39 16 -42 16 -71 4z m62 -24 c3 -8 12 -12 19
-10 35 14 47 -80 15 -114 -26 -28 -40 -28 -41 1 l0 22 -11 -22 c-13 -27 -39
-30 -61 -5 -13 15 -14 20 -2 36 8 10 17 38 21 62 5 38 10 44 30 44 14 0 27 -6
30 -14z"/>
</g>
</svg>
